<svg data-v-625087e2="" xmlns="http://www.w3.org/2000/svg" xmlns:xlink="http://www.w3.org/1999/xlink" viewBox="0 0 124.724 39.685" width="124.724pt" height="39.685pt" class="h-full w-44 text-tc-blue" style="isolation: isolate;"><defs data-v-625087e2=""><clipPath id="_clipPath_q7jJ7N87A674EHdDp3tJ7NBonesXWvLs" data-v-625087e2=""><rect width="124.724" height="39.685" data-v-625087e2=""></rect></clipPath></defs><g clip-path="url(#_clipPath_q7jJ7N87A674EHdDp3tJ7NBonesXWvLs)" data-v-625087e2=""><clipPath id="_clipPath_20wwiEPAMXtPsFNpoNlZtz8LQ7MF2dx5" data-v-625087e2=""><path d=" M 0 0 L 0 39.685 L 124.724 39.685 L 124.724 0 L 0 0 Z " fill="rgb(255,255,255)" data-v-625087e2=""></path></clipPath><g clip-path="url(#_clipPath_20wwiEPAMXtPsFNpoNlZtz8LQ7MF2dx5)" data-v-625087e2=""><line x1="45.746" y1="22.456" x2="45.746" y2="7.053" vector-effect="non-scaling-stroke" stroke-width="0.5" stroke="#2d68c4" stroke-linejoin="miter" stroke-linecap="butt" stroke-miterlimit="4" data-v-625087e2=""></line><line x1="46.88" y1="22.456" x2="46.88" y2="7.053" vector-effect="non-scaling-stroke" stroke-width="0.5" stroke="#2d68c4" stroke-linejoin="miter" stroke-linecap="butt" stroke-miterlimit="4" data-v-625087e2=""></line><line x1="48.014" y1="22.456" x2="48.014" y2="7.053" vector-effect="non-scaling-stroke" stroke-width="0.5" stroke="#2d68c4" stroke-linejoin="miter" stroke-linecap="butt" stroke-miterlimit="4" data-v-625087e2=""></line><line x1="49.148" y1="22.456" x2="49.148" y2="7.053" vector-effect="non-scaling-stroke" stroke-width="0.5" stroke="#2d68c4" stroke-linejoin="miter" stroke-linecap="butt" stroke-miterlimit="4" data-v-625087e2=""></line><line x1="50.282" y1="22.456" x2="50.282" y2="1.894" vector-effect="non-scaling-stroke" stroke-width="0.5" stroke="#2d68c4" stroke-linejoin="miter" stroke-linecap="butt" stroke-miterlimit="4" data-v-625087e2=""></line><line x1="51.416" y1="22.456" x2="51.416" y2="1.894" vector-effect="non-scaling-stroke" stroke-width="0.5" stroke="#2d68c4" stroke-linejoin="miter" stroke-linecap="butt" stroke-miterlimit="4" data-v-625087e2=""></line><line x1="52.55" y1="22.456" x2="52.55" y2="2.971" vector-effect="non-scaling-stroke" stroke-width="0.5" stroke="#2d68c4" stroke-linejoin="miter" stroke-linecap="butt" stroke-miterlimit="4" data-v-625087e2=""></line><line x1="53.683" y1="22.456" x2="53.683" y2="2.971" vector-effect="non-scaling-stroke" stroke-width="0.5" stroke="#2d68c4" stroke-linejoin="miter" stroke-linecap="butt" stroke-miterlimit="4" data-v-625087e2=""></line><line x1="54.817" y1="22.456" x2="54.817" y2="2.971" vector-effect="non-scaling-stroke" stroke-width="0.5" stroke="#2d68c4" stroke-linejoin="miter" stroke-linecap="butt" stroke-miterlimit="4" data-v-625087e2=""></line><line x1="55.951" y1="22.456" x2="55.951" y2="12.382" vector-effect="non-scaling-stroke" stroke-width="0.5" stroke="#2d68c4" stroke-linejoin="miter" stroke-linecap="butt" stroke-miterlimit="4" data-v-625087e2=""></line><line x1="57.085" y1="22.456" x2="57.085" y2="12.382" vector-effect="non-scaling-stroke" stroke-width="0.5" stroke="#2d68c4" stroke-linejoin="miter" stroke-linecap="butt" stroke-miterlimit="4" data-v-625087e2=""></line><line x1="58.219" y1="22.456" x2="58.219" y2="12.382" vector-effect="non-scaling-stroke" stroke-width="0.5" stroke="#2d68c4" stroke-linejoin="miter" stroke-linecap="butt" stroke-miterlimit="4" data-v-625087e2=""></line><line x1="59.353" y1="22.456" x2="59.353" y2="12.382" vector-effect="non-scaling-stroke" stroke-width="0.5" stroke="#2d68c4" stroke-linejoin="miter" stroke-linecap="butt" stroke-miterlimit="4" data-v-625087e2=""></line><line x1="60.487" y1="22.456" x2="60.487" y2="12.382" vector-effect="non-scaling-stroke" stroke-width="0.5" stroke="#2d68c4" stroke-linejoin="miter" stroke-linecap="butt" stroke-miterlimit="4" data-v-625087e2=""></line><line x1="61.62" y1="22.456" x2="61.62" y2="7.393" vector-effect="non-scaling-stroke" stroke-width="0.5" stroke="#2d68c4" stroke-linejoin="miter" stroke-linecap="butt" stroke-miterlimit="4" data-v-625087e2=""></line><line x1="62.754" y1="22.456" x2="62.754" y2="5.862" vector-effect="non-scaling-stroke" stroke-width="0.5" stroke="#2d68c4" stroke-linejoin="miter" stroke-linecap="butt" stroke-miterlimit="4" data-v-625087e2=""></line><line x1="63.888" y1="22.456" x2="63.888" y2="7.449" vector-effect="non-scaling-stroke" stroke-width="0.5" stroke="#2d68c4" stroke-linejoin="miter" stroke-linecap="butt" stroke-miterlimit="4" data-v-625087e2=""></line><line x1="65.022" y1="22.456" x2="65.022" y2="0.567" vector-effect="non-scaling-stroke" stroke-width="0.5" stroke="#2d68c4" stroke-linejoin="miter" stroke-linecap="butt" stroke-miterlimit="4" data-v-625087e2=""></line><line x1="66.156" y1="22.456" x2="66.156" y2="0.567" vector-effect="non-scaling-stroke" stroke-width="0.5" stroke="#2d68c4" stroke-linejoin="miter" stroke-linecap="butt" stroke-miterlimit="4" data-v-625087e2=""></line><line x1="67.29" y1="22.456" x2="67.29" y2="3.991" vector-effect="non-scaling-stroke" stroke-width="0.5" stroke="#2d68c4" stroke-linejoin="miter" stroke-linecap="butt" stroke-miterlimit="4" data-v-625087e2=""></line><line x1="68.424" y1="22.456" x2="68.424" y2="3.991" vector-effect="non-scaling-stroke" stroke-width="0.5" stroke="#2d68c4" stroke-linejoin="miter" stroke-linecap="butt" stroke-miterlimit="4" data-v-625087e2=""></line><line x1="69.557" y1="22.456" x2="69.557" y2="3.991" vector-effect="non-scaling-stroke" stroke-width="0.5" stroke="#2d68c4" stroke-linejoin="miter" stroke-linecap="butt" stroke-miterlimit="4" data-v-625087e2=""></line><line x1="70.691" y1="22.456" x2="70.691" y2="3.991" vector-effect="non-scaling-stroke" stroke-width="0.5" stroke="#2d68c4" stroke-linejoin="miter" stroke-linecap="butt" stroke-miterlimit="4" data-v-625087e2=""></line><line x1="71.825" y1="22.456" x2="71.825" y2="14.593" vector-effect="non-scaling-stroke" stroke-width="0.5" stroke="#2d68c4" stroke-linejoin="miter" stroke-linecap="butt" stroke-miterlimit="4" data-v-625087e2=""></line><line x1="72.959" y1="22.456" x2="72.959" y2="13.459" vector-effect="non-scaling-stroke" stroke-width="0.5" stroke="#2d68c4" stroke-linejoin="miter" stroke-linecap="butt" stroke-miterlimit="4" data-v-625087e2=""></line><line x1="74.093" y1="22.456" x2="74.093" y2="14.593" vector-effect="non-scaling-stroke" stroke-width="0.5" stroke="#2d68c4" stroke-linejoin="miter" stroke-linecap="butt" stroke-miterlimit="4" data-v-625087e2=""></line><line x1="75.227" y1="22.456" x2="75.227" y2="13.459" vector-effect="non-scaling-stroke" stroke-width="0.5" stroke="#2d68c4" stroke-linejoin="miter" stroke-linecap="butt" stroke-miterlimit="4" data-v-625087e2=""></line><line x1="76.361" y1="22.456" x2="76.361" y2="14.593" vector-effect="non-scaling-stroke" stroke-width="0.5" stroke="#2d68c4" stroke-linejoin="miter" stroke-linecap="butt" stroke-miterlimit="4" data-v-625087e2=""></line><line x1="77.494" y1="22.456" x2="77.494" y2="13.459" vector-effect="non-scaling-stroke" stroke-width="0.5" stroke="#2d68c4" stroke-linejoin="miter" stroke-linecap="butt" stroke-miterlimit="4" data-v-625087e2=""></line><line x1="78.628" y1="22.456" x2="78.628" y2="14.593" vector-effect="non-scaling-stroke" stroke-width="0.5" stroke="#2d68c4" stroke-linejoin="miter" stroke-linecap="butt" stroke-miterlimit="4" data-v-625087e2=""></line><line x1="79.762" y1="22.456" x2="79.762" y2="13.459" vector-effect="non-scaling-stroke" stroke-width="0.5" stroke="#2d68c4" stroke-linejoin="miter" stroke-linecap="butt" stroke-miterlimit="4" data-v-625087e2=""></line><line x1="80.896" y1="22.456" x2="80.896" y2="14.593" vector-effect="non-scaling-stroke" stroke-width="0.5" stroke="#2d68c4" stroke-linejoin="miter" stroke-linecap="butt" stroke-miterlimit="4" data-v-625087e2=""></line><line x1="82.03" y1="22.456" x2="82.03" y2="9.689" vector-effect="non-scaling-stroke" stroke-width="0.5" stroke="#2d68c4" stroke-linejoin="miter" stroke-linecap="butt" stroke-miterlimit="4" data-v-625087e2=""></line><line x1="83.164" y1="22.456" x2="83.164" y2="9.689" vector-effect="non-scaling-stroke" stroke-width="0.5" stroke="#2d68c4" stroke-linejoin="miter" stroke-linecap="butt" stroke-miterlimit="4" data-v-625087e2=""></line><line x1="84.298" y1="22.456" x2="84.298" y2="9.689" vector-effect="non-scaling-stroke" stroke-width="0.5" stroke="#2d68c4" stroke-linejoin="miter" stroke-linecap="butt" stroke-miterlimit="4" data-v-625087e2=""></line><line x1="85.431" y1="22.456" x2="85.431" y2="17.909" vector-effect="non-scaling-stroke" stroke-width="0.5" stroke="#2d68c4" stroke-linejoin="miter" stroke-linecap="butt" stroke-miterlimit="4" data-v-625087e2=""></line><line x1="86.565" y1="22.456" x2="86.565" y2="17.909" vector-effect="non-scaling-stroke" stroke-width="0.5" stroke="#2d68c4" stroke-linejoin="miter" stroke-linecap="butt" stroke-miterlimit="4" data-v-625087e2=""></line><line x1="87.699" y1="22.456" x2="87.699" y2="17.909" vector-effect="non-scaling-stroke" stroke-width="0.5" stroke="#2d68c4" stroke-linejoin="miter" stroke-linecap="butt" stroke-miterlimit="4" data-v-625087e2=""></line><line x1="88.833" y1="22.456" x2="88.833" y2="17.909" vector-effect="non-scaling-stroke" stroke-width="0.5" stroke="#2d68c4" stroke-linejoin="miter" stroke-linecap="butt" stroke-miterlimit="4" data-v-625087e2=""></line><line x1="89.967" y1="22.456" x2="89.967" y2="17.909" vector-effect="non-scaling-stroke" stroke-width="0.5" stroke="#2d68c4" stroke-linejoin="miter" stroke-linecap="butt" stroke-miterlimit="4" data-v-625087e2=""></line><line x1="91.101" y1="22.456" x2="91.101" y2="11.815" vector-effect="non-scaling-stroke" stroke-width="0.5" stroke="#2d68c4" stroke-linejoin="miter" stroke-linecap="butt" stroke-miterlimit="4" data-v-625087e2=""></line><line x1="92.235" y1="22.456" x2="92.235" y2="8.838" vector-effect="non-scaling-stroke" stroke-width="0.5" stroke="#2d68c4" stroke-linejoin="miter" stroke-linecap="butt" stroke-miterlimit="4" data-v-625087e2=""></line><line x1="93.368" y1="22.456" x2="93.368" y2="11.815" vector-effect="non-scaling-stroke" stroke-width="0.5" stroke="#2d68c4" stroke-linejoin="miter" stroke-linecap="butt" stroke-miterlimit="4" data-v-625087e2=""></line><line x1="94.502" y1="22.456" x2="94.502" y2="15.175" vector-effect="non-scaling-stroke" stroke-width="0.5" stroke="#2d68c4" stroke-linejoin="miter" stroke-linecap="butt" stroke-miterlimit="4" data-v-625087e2=""></line><line x1="95.636" y1="22.456" x2="95.636" y2="11.106" vector-effect="non-scaling-stroke" stroke-width="0.5" stroke="#2d68c4" stroke-linejoin="miter" stroke-linecap="butt" stroke-miterlimit="4" data-v-625087e2=""></line><line x1="96.77" y1="22.456" x2="96.77" y2="11.106" vector-effect="non-scaling-stroke" stroke-width="0.5" stroke="#2d68c4" stroke-linejoin="miter" stroke-linecap="butt" stroke-miterlimit="4" data-v-625087e2=""></line><line x1="97.904" y1="22.456" x2="97.904" y2="5.153" vector-effect="non-scaling-stroke" stroke-width="0.5" stroke="#2d68c4" stroke-linejoin="miter" stroke-linecap="butt" stroke-miterlimit="4" data-v-625087e2=""></line><line x1="99.038" y1="22.456" x2="99.038" y2="5.153" vector-effect="non-scaling-stroke" stroke-width="0.5" stroke="#2d68c4" stroke-linejoin="miter" stroke-linecap="butt" stroke-miterlimit="4" data-v-625087e2=""></line><line x1="100.172" y1="22.456" x2="100.172" y2="5.153" vector-effect="non-scaling-stroke" stroke-width="0.5" stroke="#2d68c4" stroke-linejoin="miter" stroke-linecap="butt" stroke-miterlimit="4" data-v-625087e2=""></line><line x1="101.305" y1="22.456" x2="101.305" y2="5.153" vector-effect="non-scaling-stroke" stroke-width="0.5" stroke="#2d68c4" stroke-linejoin="miter" stroke-linecap="butt" stroke-miterlimit="4" data-v-625087e2=""></line><line x1="102.439" y1="22.456" x2="102.439" y2="5.153" vector-effect="non-scaling-stroke" stroke-width="0.5" stroke="#2d68c4" stroke-linejoin="miter" stroke-linecap="butt" stroke-miterlimit="4" data-v-625087e2=""></line><line x1="103.573" y1="22.456" x2="103.573" y2="3.169" vector-effect="non-scaling-stroke" stroke-width="0.5" stroke="#2d68c4" stroke-linejoin="miter" stroke-linecap="butt" stroke-miterlimit="4" data-v-625087e2=""></line><line x1="104.707" y1="22.456" x2="104.707" y2="3.169" vector-effect="non-scaling-stroke" stroke-width="0.5" stroke="#2d68c4" stroke-linejoin="miter" stroke-linecap="butt" stroke-miterlimit="4" data-v-625087e2=""></line><line x1="105.841" y1="22.456" x2="105.841" y2="3.169" vector-effect="non-scaling-stroke" stroke-width="0.5" stroke="#2d68c4" stroke-linejoin="miter" stroke-linecap="butt" stroke-miterlimit="4" data-v-625087e2=""></line><line x1="106.975" y1="22.456" x2="106.975" y2="6.854" vector-effect="non-scaling-stroke" stroke-width="0.5" stroke="#2d68c4" stroke-linejoin="miter" stroke-linecap="butt" stroke-miterlimit="4" data-v-625087e2=""></line><line x1="108.109" y1="22.456" x2="108.109" y2="6.854" vector-effect="non-scaling-stroke" stroke-width="0.5" stroke="#2d68c4" stroke-linejoin="miter" stroke-linecap="butt" stroke-miterlimit="4" data-v-625087e2=""></line><line x1="109.242" y1="22.456" x2="109.242" y2="6.854" vector-effect="non-scaling-stroke" stroke-width="0.5" stroke="#2d68c4" stroke-linejoin="miter" stroke-linecap="butt" stroke-miterlimit="4" data-v-625087e2=""></line><line x1="110.376" y1="22.456" x2="110.376" y2="6.854" vector-effect="non-scaling-stroke" stroke-width="0.5" stroke="#2d68c4" stroke-linejoin="miter" stroke-linecap="butt" stroke-miterlimit="4" data-v-625087e2=""></line><line x1="111.51" y1="38.886" x2="111.51" y2="16.35" vector-effect="non-scaling-stroke" stroke-width="0.5" stroke="#2d68c4" stroke-linejoin="miter" stroke-linecap="butt" stroke-miterlimit="4" data-v-625087e2=""></line><line x1="112.644" y1="38.886" x2="112.644" y2="14.508" vector-effect="non-scaling-stroke" stroke-width="0.5" stroke="#2d68c4" stroke-linejoin="miter" stroke-linecap="butt" stroke-miterlimit="4" data-v-625087e2=""></line><line x1="113.778" y1="38.886" x2="113.778" y2="16.35" vector-effect="non-scaling-stroke" stroke-width="0.5" stroke="#2d68c4" stroke-linejoin="miter" stroke-linecap="butt" stroke-miterlimit="4" data-v-625087e2=""></line><line x1="114.912" y1="39.027" x2="114.912" y2="11.957" vector-effect="non-scaling-stroke" stroke-width="0.5" stroke="#2d68c4" stroke-linejoin="miter" stroke-linecap="butt" stroke-miterlimit="4" data-v-625087e2=""></line><line x1="116.046" y1="39.027" x2="116.046" y2="11.957" vector-effect="non-scaling-stroke" stroke-width="0.5" stroke="#2d68c4" stroke-linejoin="miter" stroke-linecap="butt" stroke-miterlimit="4" data-v-625087e2=""></line><line x1="117.179" y1="37.027" x2="117.179" y2="9.957" vector-effect="non-scaling-stroke" stroke-width="0.5" stroke="#2d68c4" stroke-linejoin="miter" stroke-linecap="butt" stroke-miterlimit="4" data-v-625087e2=""></line><line x1="118.313" y1="39.027" x2="118.313" y2="1.752" vector-effect="non-scaling-stroke" stroke-width="0.5" stroke="#2d68c4" stroke-linejoin="miter" stroke-linecap="butt" stroke-miterlimit="4" data-v-625087e2=""></line><line x1="119.447" y1="39.027" x2="119.447" y2="1.752" vector-effect="non-scaling-stroke" stroke-width="0.5" stroke="#2d68c4" stroke-linejoin="miter" stroke-linecap="butt" stroke-miterlimit="4" data-v-625087e2=""></line><line x1="120.581" y1="39.027" x2="120.581" y2="1.752" vector-effect="non-scaling-stroke" stroke-width="0.5" stroke="#2d68c4" stroke-linejoin="miter" stroke-linecap="butt" stroke-miterlimit="4" data-v-625087e2=""></line><line x1="121.715" y1="39.027" x2="121.715" y2="8.98" vector-effect="non-scaling-stroke" stroke-width="0.5" stroke="#2d68c4" stroke-linejoin="miter" stroke-linecap="butt" stroke-miterlimit="4" data-v-625087e2=""></line><line x1="122.849" y1="39.027" x2="122.849" y2="7.138" vector-effect="non-scaling-stroke" stroke-width="0.5" stroke="#2d68c4" stroke-linejoin="miter" stroke-linecap="butt" stroke-miterlimit="4" data-v-625087e2=""></line><line x1="123.983" y1="39.027" x2="123.983" y2="8.98" vector-effect="non-scaling-stroke" stroke-width="0.5" stroke="#2d68c4" stroke-linejoin="miter" stroke-linecap="butt" stroke-miterlimit="4" data-v-625087e2=""></line><path d=" M 9.773 35.186 L 7.353 35.186 C 7.113 36.181 6.478 36.919 5.294 36.919 C 4.642 36.919 4.11 36.679 3.767 36.284 C 3.321 35.77 3.166 35.169 3.166 32.835 C 3.166 30.501 3.321 29.901 3.767 29.386 C 4.11 28.991 4.642 28.751 5.294 28.751 C 6.478 28.751 7.096 29.489 7.336 30.484 L 9.773 30.484 C 9.327 27.927 7.576 26.623 5.294 26.623 C 3.887 26.623 2.857 27.087 2.017 27.91 C 0.798 29.129 0.781 30.501 0.781 32.835 C 0.781 35.169 0.798 36.542 2.017 37.76 C 2.857 38.584 3.887 39.047 5.294 39.047 C 7.559 39.047 9.327 37.743 9.773 35.186 Z  M 20.834 32.835 C 20.834 30.501 20.8 29.129 19.581 27.91 C 18.758 27.087 17.728 26.623 16.321 26.623 C 14.914 26.623 13.867 27.087 13.043 27.91 C 11.825 29.129 11.808 30.501 11.808 32.835 C 11.808 35.169 11.825 36.542 13.043 37.76 C 13.867 38.584 14.914 39.047 16.321 39.047 C 17.728 39.047 18.758 38.584 19.581 37.76 C 20.8 36.542 20.834 35.169 20.834 32.835 Z  M 18.449 32.835 C 18.449 35.169 18.294 35.735 17.848 36.25 C 17.505 36.645 16.973 36.919 16.321 36.919 C 15.669 36.919 15.137 36.645 14.777 36.25 C 14.33 35.735 14.193 35.169 14.193 32.835 C 14.193 30.501 14.33 29.918 14.777 29.403 C 15.137 29.009 15.669 28.751 16.321 28.751 C 16.973 28.751 17.505 29.009 17.848 29.403 C 18.294 29.918 18.449 30.501 18.449 32.835 Z  M 34.521 38.944 L 34.521 26.726 L 32.17 26.726 L 28.995 33.333 L 25.804 26.726 L 23.453 26.726 L 23.453 38.944 L 25.838 38.944 L 25.838 31.823 L 28.189 36.456 L 29.802 36.456 L 32.136 31.823 L 32.136 38.944 L 34.521 38.944 Z  M 46.267 30.536 C 46.267 28.459 44.774 26.726 42.234 26.726 L 37.498 26.726 L 37.498 38.944 L 39.883 38.944 L 39.883 34.345 L 42.234 34.345 C 44.774 34.345 46.267 32.612 46.267 30.536 Z  M 43.881 30.536 C 43.881 31.531 43.195 32.2 42.114 32.2 L 39.883 32.2 L 39.883 28.854 L 42.114 28.854 C 43.195 28.854 43.881 29.541 43.881 30.536 Z  M 56.434 38.944 L 56.434 36.816 L 50.891 36.816 L 50.891 26.726 L 48.506 26.726 L 48.506 38.944 L 56.434 38.944 Z  M 61.015 38.944 L 61.015 26.726 L 58.63 26.726 L 58.63 38.944 L 61.015 38.944 Z  M 73.758 38.944 L 69.296 26.726 L 67.426 26.726 L 62.981 38.944 L 65.47 38.944 L 66.207 36.782 L 70.549 36.782 L 71.27 38.944 L 73.758 38.944 Z  M 69.914 34.774 L 66.877 34.774 L 68.421 30.33 L 69.914 34.774 Z  M 85.102 38.944 L 85.102 26.726 L 82.717 26.726 L 82.717 34.208 L 77.878 26.726 L 75.75 26.726 L 75.75 38.944 L 78.135 38.944 L 78.135 31.445 L 82.974 38.944 L 85.102 38.944 Z  M 96.712 35.186 L 94.293 35.186 C 94.053 36.181 93.418 36.919 92.234 36.919 C 91.581 36.919 91.05 36.679 90.706 36.284 C 90.26 35.77 90.106 35.169 90.106 32.835 C 90.106 30.501 90.26 29.901 90.706 29.386 C 91.05 28.991 91.581 28.751 92.234 28.751 C 93.418 28.751 94.035 29.489 94.276 30.484 L 96.712 30.484 C 96.266 27.927 94.516 26.623 92.234 26.623 C 90.826 26.623 89.797 27.087 88.956 27.91 C 87.738 29.129 87.72 30.501 87.72 32.835 C 87.72 35.169 87.738 36.542 88.956 37.76 C 89.797 38.584 90.826 39.047 92.234 39.047 C 94.499 39.047 96.266 37.743 96.712 35.186 Z  M 107.025 38.944 L 107.025 36.816 L 101.362 36.816 L 101.362 33.848 L 106.184 33.848 L 106.184 31.72 L 101.362 31.72 L 101.362 28.854 L 107.025 28.854 L 107.025 26.726 L 98.977 26.726 L 98.977 38.944 L 107.025 38.944 Z " fill="#2d68c4" data-v-625087e2=""></path><path d=" M 9.052 11.694 L 9.052 9.566 L 0.283 9.566 L 0.283 11.694 L 3.475 11.694 L 3.475 21.784 L 5.86 21.784 L 5.86 11.694 L 9.052 11.694 Z  M 20.498 21.784 L 17.769 16.516 C 18.953 16.087 20 15.023 20 13.307 C 20 11.265 18.524 9.566 16.036 9.566 L 11.249 9.566 L 11.249 21.784 L 13.634 21.784 L 13.634 16.911 L 15.35 16.911 L 17.735 21.784 L 20.498 21.784 Z  M 17.615 13.307 C 17.615 14.251 16.929 14.92 15.882 14.92 L 13.634 14.92 L 13.634 11.694 L 15.882 11.694 C 16.929 11.694 17.615 12.363 17.615 13.307 Z  M 31.367 17.597 L 31.367 9.566 L 28.999 9.566 L 28.999 17.511 C 28.999 18.918 28.158 19.759 26.871 19.759 C 25.584 19.759 24.76 18.918 24.76 17.511 L 24.76 9.566 L 22.375 9.566 L 22.375 17.597 C 22.375 20.188 24.365 21.887 26.871 21.887 C 29.376 21.887 31.367 20.188 31.367 17.597 Z  M 42.258 21.784 L 42.258 19.656 L 36.595 19.656 L 36.595 16.688 L 41.417 16.688 L 41.417 14.56 L 36.595 14.56 L 36.595 11.694 L 42.258 11.694 L 42.258 9.566 L 34.21 9.566 L 34.21 21.784 L 42.258 21.784 Z " fill="#2d68c4" data-v-625087e2=""></path></g></g></svg>